<svg xmlns="http://www.w3.org/2000/svg" viewBox="0 0 714.04 720"><defs><style>.cls-1{fill:currentColor;}</style></defs><title>Asset 32</title><g id="Layer_2" data-name="Layer 2"><g id="Layer_1-2" data-name="Layer 1"><path class="cls-1" d="M642.21,360c0-4-.13-8-.32-11.92L714,314.32a358,358,0,0,0-15.47-68.09l-79.62.89q-4.76-11-10.34-21.49l50.28-61.69a359.27,359.27,0,0,0-43.56-54.58l-71.45,35.31c-6-5.2-12.11-10.14-18.51-14.83L544,52.24a363.17,363.17,0,0,0-62.83-30.3l-49.07,63c-7.61-2.09-15.34-3.81-23.2-5.26L391.92,1.71Q374.72,0,357.05,0T322.12,1.71L305.26,79.63c-7.86,1.45-15.6,3.17-23.21,5.26L233,21.94a363.74,363.74,0,0,0-62.89,30.3l18.58,77.6c-6.34,4.69-12.55,9.63-18.51,14.83L98.77,109.36a362.69,362.69,0,0,0-43.61,54.58l50.33,61.69c-3.74,7-7.22,14.14-10.33,21.49l-79.69-.89A362.61,362.61,0,0,0,0,314.32l72.15,33.79C72,352,71.89,356,71.89,360s.13,7.93.26,11.86L0,405.68a362.61,362.61,0,0,0,15.47,68.09l79.69-.89c3.11,7.35,6.59,14.52,10.33,21.49L55.16,556.06a362.19,362.19,0,0,0,43.61,54.58l71.39-35.31c6,5.2,12.17,10.14,18.51,14.83l-18.58,77.6A363.74,363.74,0,0,0,233,698.06l49.07-62.95c7.61,2.09,15.35,3.87,23.21,5.26l16.86,77.92Q339.34,720,357.05,720t34.87-1.71l16.93-77.92c7.86-1.39,15.59-3.17,23.2-5.26l49.07,62.95A363.17,363.17,0,0,0,544,667.76l-18.58-77.6c6.4-4.69,12.55-9.63,18.51-14.83l71.45,35.31a358.78,358.78,0,0,0,43.56-54.58l-50.28-61.69q5.61-10.46,10.34-21.49l79.62.89A358,358,0,0,0,714,405.68l-72.15-33.79C642.08,368,642.21,364,642.21,360Zm-163.69-.34L465,363c0,.82-.05,1.63-.09,2.45l13.48,6c10,4.41,9.22,8.61-1.64,9.35l-13.89.94c-.16.8-.34,1.61-.52,2.41l12.22,8.2c9,6.07,7.58,10.08-3.24,8.92l-13.83-1.49c-.31.77-.62,1.53-.94,2.29l10.61,10.2c7.85,7.54,5.72,11.24-4.74,8.22L449,416.61c-.43.69-.87,1.39-1.32,2.07l8.69,11.91c6.43,8.79,3.68,12.06-6.1,7.27l-12.52-6.15c-.54.61-1.09,1.22-1.64,1.81l6.5,13.25c4.79,9.78,1.52,12.52-7.27,6.1l-11.26-8.22c-.64.51-1.29,1-1.94,1.5l4.1,14.17c3,10.46-.67,12.59-8.22,4.74l-9.64-10-2.19,1.15,1.58,14.64c1.16,10.82-2.85,12.29-8.92,3.24l-7.75-11.55c-.78.26-1.57.51-2.36.75l-1,14.69c-.73,10.86-4.94,11.61-9.34,1.65l-5.64-12.74-2.43.33-3.54,14.31c-2.61,10.57-6.88,10.57-9.49,0L354,468c-.82,0-1.63,0-2.45-.09l-6,13.48c-4.41,10-8.61,9.22-9.35-1.64l-.94-13.89c-.8-.16-1.61-.34-2.41-.52l-8.2,12.22c-6.07,9.05-10.08,7.59-8.92-3.24l1.49-13.83-2.29-.94-10.2,10.61c-7.54,7.85-11.24,5.72-8.22-4.74L300.41,452c-.69-.43-1.39-.87-2.07-1.32l-11.91,8.69c-8.79,6.43-12.06,3.68-7.27-6.1l6.15-12.52-1.82-1.64-13.24,6.5c-9.78,4.79-12.52,1.52-6.1-7.27l8.22-11.26c-.51-.64-1-1.29-1.5-1.94l-14.17,4.1c-10.46,3-12.59-.67-4.74-8.22l10-9.64c-.39-.73-.77-1.45-1.15-2.19l-14.64,1.58c-10.82,1.16-12.29-2.85-3.24-8.92l11.55-7.75c-.26-.78-.51-1.57-.75-2.35l-14.69-1c-10.86-.73-11.61-4.94-1.65-9.34l12.74-5.64q-.18-1.22-.33-2.43l-14.31-3.54c-10.57-2.61-10.57-6.88,0-9.49L249.06,357c0-.82.05-1.63.09-2.45l-13.48-6c-10-4.41-9.22-8.61,1.64-9.35l13.89-.94c.16-.8.34-1.61.52-2.41l-12.22-8.2c-9.05-6.07-7.59-10.08,3.24-8.92l13.83,1.49c.31-.77.62-1.53.94-2.29l-10.61-10.2c-7.85-7.54-5.72-11.24,4.74-8.22L265,303.39c.43-.69.87-1.39,1.32-2.07l-8.69-11.91c-6.43-8.79-3.68-12.06,6.1-7.27l12.52,6.15c.54-.61,1.09-1.22,1.64-1.81l-6.5-13.25c-4.79-9.78-1.52-12.52,7.27-6.1l11.26,8.22c.64-.51,1.29-1,1.94-1.5l-4.1-14.17c-3-10.46.67-12.59,8.22-4.74l9.64,10,2.19-1.15-1.58-14.64c-1.16-10.82,2.85-12.29,8.92-3.24l7.75,11.55c.78-.26,1.57-.51,2.36-.75l1-14.69c.73-10.86,4.94-11.61,9.34-1.65l5.64,12.74,2.43-.33,3.54-14.31c2.61-10.57,6.88-10.57,9.49,0L360.05,252c.82,0,1.63.05,2.45.09l6-13.48c4.41-10,8.61-9.22,9.35,1.64l.94,13.89c.8.16,1.61.34,2.41.52l8.2-12.22c6.07-9,10.08-7.59,8.92,3.24l-1.49,13.83,2.29.94,10.2-10.61c7.54-7.85,11.24-5.72,8.22,4.74L413.63,268c.69.43,1.39.87,2.07,1.32l11.91-8.69c8.79-6.43,12.06-3.68,7.27,6.1l-6.15,12.52,1.82,1.64,13.24-6.5c9.78-4.79,12.52-1.52,6.1,7.27l-8.22,11.26c.51.64,1,1.29,1.5,1.94l14.17-4.1c10.46-3,12.59.67,4.74,8.22l-10,9.64c.39.73.77,1.45,1.15,2.19l14.64-1.58c10.82-1.16,12.29,2.85,3.24,8.92l-11.55,7.75c.26.78.51,1.57.75,2.36l14.69,1c10.86.73,11.61,4.94,1.65,9.34l-12.74,5.64q.18,1.22.33,2.43l14.31,3.54C489.09,352.81,489.09,357.08,478.52,359.69Z"/></g></g></svg>